# xmcd
#
# Track frame offsets:
#       150
#       11132
#       23165
#       37142
#       47677
#       58962
#       69905
#       80945
#       91412
#       104127
#
# Disc length: 1574 seconds
#
# Revision: 5
# Processed by: cddbd v1.5.2PL0 Copyright (c) Steve Scherf et al.
# Submitted via: FreeDbEdit v0.1
#
DISCID=8e06240a
DTITLE=Various Artist - A Country Christmas
DYEAR=1992
DGENRE=Christmas
TTITLE0=Willie Nelson - Pretty Paper
TTITLE1=Mickey Gills - Silver Bells
TTITLE2=Tanya Tucker - Silent Night
TTITLE3=Jimmy Dean - It Came Upon a Midnight Clear
TTITLE4=Johnny Cash - I Heard the Sound on Christmas Day
TTITLE5=Tammy Wynette - Away in a Manger
TTITLE6=Charlie Rich - God Rest Ye Merry Gentlemen
TTITLE7=George Jones - Jingle Bells
TTITLE8=Merle Haggard - Rudolph the Red-Nosed Reindeer
TTITLE9=Marty Robbins - Hark the Herald Angels Sing
EXTD=
EXTT0=
EXTT1=
EXTT2=
EXTT3=
EXTT4=
EXTT5=
EXTT6=
EXTT7=
EXTT8=
EXTT9=
PLAYORDER=
